<?xml version="1.0" standalone="no"?>
<!DOCTYPE svg PUBLIC "-//W3C//DTD SVG 20010904//EN"
 "http://www.w3.org/TR/2001/REC-SVG-20010904/DTD/svg10.dtd">
<svg version="1.0" xmlns="http://www.w3.org/2000/svg"
 width="1748.000000pt" height="752.000000pt" viewBox="0 0 1748.000000 752.000000"
 preserveAspectRatio="xMidYMid meet">

<g transform="translate(0.000000,752.000000) scale(0.100000,-0.100000)"
fill="#000000" stroke="none">
<path d="M0 3760 l0 -3760 8740 0 8740 0 0 3760 0 3760 -8740 0 -8740 0 0
-3760z m9000 2750 c6 -12 10 -63 8 -122 l-3 -103 -120 0 -120 0 -3 103 c-4
143 -5 142 123 142 94 0 105 -2 115 -20z m-640 -39 c7 -13 10 -419 10 -1245 0
-1201 0 -1226 -19 -1236 -28 -14 -244 -13 -259 2 -7 7 -12 40 -12 80 0 37 -2
68 -5 68 -3 0 -25 -18 -47 -40 -23 -22 -48 -40 -55 -40 -7 0 -13 -3 -13 -7 0
-11 -59 -43 -79 -43 -9 0 -21 -4 -26 -9 -23 -23 -111 -35 -270 -38 -167 -4
-225 3 -295 38 -75 36 -90 45 -90 51 0 5 -6 8 -14 8 -17 0 -116 98 -116 115 0
7 -6 15 -13 18 -33 13 -101 189 -119 312 -13 90 -13 647 0 745 10 71 30 153
43 175 4 6 9 22 13 38 3 15 11 27 16 27 6 0 10 7 10 17 0 17 68 113 107 150
54 52 160 113 197 113 12 1 32 7 46 15 36 21 307 21 357 0 19 -8 44 -15 54
-15 11 0 27 -4 37 -9 9 -4 48 -23 86 -42 38 -19 91 -55 118 -81 27 -27 51 -48
54 -48 2 0 4 194 4 431 0 277 4 437 10 450 10 17 22 19 135 19 113 0 125 -2
135 -19z m-4487 -33 c21 -49 43 -105 72 -188 24 -68 44 -122 65 -175 5 -11 20
-54 35 -95 15 -41 33 -91 40 -110 7 -19 26 -69 40 -110 15 -41 33 -89 41 -107
8 -17 14 -36 14 -42 0 -6 4 -19 9 -29 6 -9 22 -51 36 -92 15 -41 33 -91 40
-110 7 -19 26 -69 40 -110 15 -41 33 -88 39 -105 7 -16 18 -43 24 -60 35 -100
95 -263 102 -280 20 -50 41 -106 65 -175 15 -41 33 -91 40 -110 7 -19 25 -69
40 -110 15 -41 30 -84 35 -95 21 -53 41 -107 65 -175 15 -41 33 -91 42 -112 8
-20 12 -41 9 -47 -8 -13 -234 -15 -254 -2 -11 7 -39 76 -82 201 -4 14 -27 77
-50 140 -23 63 -51 142 -62 175 -12 33 -26 63 -32 67 -6 4 -264 8 -573 8 -497
0 -563 -2 -577 -16 -9 -8 -16 -22 -16 -30 0 -8 -4 -22 -9 -32 -6 -9 -19 -44
-30 -77 -11 -33 -38 -112 -61 -175 -23 -63 -46 -126 -50 -140 -28 -81 -43
-116 -53 -122 -7 -4 -65 -8 -130 -8 -132 0 -141 5 -113 64 9 19 16 39 16 45 0
6 4 19 9 29 8 14 38 95 103 277 6 17 17 44 24 60 6 17 24 64 39 105 14 41 33
91 40 110 7 19 25 69 40 110 15 41 30 84 35 95 21 53 41 107 65 175 15 41 33
91 40 110 22 57 111 299 140 380 25 70 46 126 65 175 5 11 27 72 50 135 49
135 136 370 155 420 8 19 23 61 35 94 37 104 22 96 185 96 l144 0 14 -32z
m2591 16 c3 -9 6 -564 6 -1235 l0 -1219 -22 -5 c-13 -3 -66 -5 -118 -3 l-95 3
-3 90 c-1 50 -4 96 -7 103 -3 8 -27 -11 -62 -49 -84 -89 -152 -123 -303 -155
-77 -17 -266 -18 -324 -3 -138 35 -210 74 -284 151 -60 61 -98 122 -126 198
-50 137 -51 143 -51 540 0 421 4 454 68 600 107 245 366 363 672 305 147 -28
243 -75 336 -166 49 -48 69 -62 73 -52 3 8 6 217 6 464 l0 449 114 0 c95 0
115 -3 120 -16z m2534 -646 c17 -17 17 -1739 0 -1756 -8 -8 -48 -12 -113 -12
-65 0 -105 4 -113 12 -16 16 -18 1719 -2 1749 10 17 22 19 113 19 67 0 107 -4
115 -12z m1699 -33 c85 -20 114 -31 186 -74 138 -81 231 -245 267 -466 8 -48
10 -256 8 -655 l-3 -585 -111 -3 c-83 -2 -114 1 -122 11 -8 9 -12 196 -14 617
-4 596 -4 606 -26 659 -75 187 -224 281 -442 281 -238 0 -402 -119 -441 -320
-9 -46 -15 -242 -19 -655 l-5 -590 -95 -3 c-52 -2 -105 0 -117 3 l-23 5 0 880
0 880 120 0 120 0 0 -104 c0 -58 4 -107 8 -110 4 -2 36 24 71 59 60 60 145
115 214 137 146 47 306 59 424 33z m-2109 -2012 l-3 -128 -880 0 -880 0 -3
114 c-1 63 0 121 2 128 4 11 169 13 886 13 l881 0 -3 -127z m6350 17 c2 -58 0
-115 -3 -128 l-5 -22 -2873 2 -2872 3 -3 114 c-1 63 0 121 2 128 4 11 514 13
2878 11 l2873 -3 3 -105z m-5934 84 c3 -9 6 -475 6 -1037 0 -1082 -1 -1057 48
-1125 39 -54 74 -66 202 -72 l115 -5 3 -113 3 -114 -158 4 c-134 3 -167 7
-214 26 -103 41 -173 119 -221 248 l-22 59 -4 1052 c-2 748 0 1058 8 1073 10
18 20 20 119 20 90 0 110 -3 115 -16z m977 -929 c5 -633 6 -642 59 -748 78
-156 245 -238 454 -223 198 14 321 99 389 269 20 50 21 72 25 675 l4 623 116
-3 117 -3 3 -882 2 -883 -120 0 -120 0 0 99 c0 55 -4 103 -10 106 -5 3 -26
-12 -46 -34 -56 -63 -153 -124 -249 -159 -112 -40 -321 -49 -430 -19 -190 53
-311 167 -384 362 -44 118 -44 112 -48 763 -3 343 -2 630 1 638 5 12 27 14
118 12 l113 -3 6 -590z m-1579 492 c5 -7 7 -55 6 -107 l-3 -95 -644 -3 c-599
-2 -645 -3 -657 -20 -19 -24 -20 -882 -2 -900 9 -9 146 -12 555 -12 526 0 543
-1 553 -19 14 -28 13 -184 -2 -199 -9 -9 -146 -12 -555 -12 -526 0 -543 -1
-553 -19 -6 -13 -10 -202 -10 -545 l0 -526 -22 -5 c-13 -3 -66 -5 -118 -3
l-95 3 -3 1237 -2 1237 72 3 c40 2 388 2 773 0 521 -3 702 -7 707 -15z m3535
-873 c70 -96 137 -188 148 -204 67 -95 227 -310 234 -315 12 -7 27 13 143 185
249 369 321 476 336 493 13 14 34 17 144 17 70 0 128 -4 128 -9 0 -4 -71 -109
-157 -232 -86 -123 -170 -244 -187 -269 -17 -25 -34 -49 -39 -55 -45 -55 -217
-311 -217 -322 0 -9 24 -48 52 -87 102 -138 521 -701 551 -740 24 -31 27 -40
16 -47 -8 -5 -67 -9 -131 -9 l-117 0 -60 82 c-82 113 -84 116 -276 388 -93
131 -174 238 -180 236 -11 -3 -119 -143 -255 -331 -47 -64 -100 -135 -117
-158 -18 -23 -61 -80 -96 -127 l-62 -85 -118 -3 c-65 -1 -124 1 -132 6 -14 7
31 72 503 722 18 25 39 53 47 62 42 51 84 122 78 132 -10 15 -147 200 -153
206 -4 3 -19 23 -35 45 -17 22 -116 153 -221 290 -105 138 -199 263 -209 278
l-17 27 135 0 136 0 128 -176z"/>
<path d="M7573 5552 c-46 -2 -83 -7 -83 -11 0 -5 -16 -12 -35 -15 -19 -4 -35
-11 -35 -16 0 -6 -6 -10 -13 -10 -15 0 -117 -88 -117 -101 0 -5 -11 -27 -25
-49 -14 -22 -25 -48 -25 -58 0 -10 -6 -24 -12 -30 -10 -10 -13 -101 -13 -387
0 -286 3 -377 13 -386 6 -7 12 -21 12 -31 0 -10 11 -36 25 -58 14 -22 25 -42
25 -45 0 -10 94 -95 104 -95 5 0 17 -6 25 -13 9 -7 36 -20 61 -28 61 -19 276
-19 316 0 16 8 44 21 63 30 59 28 144 119 174 186 10 22 24 51 30 64 18 35 17
763 0 769 -7 2 -13 8 -13 13 0 29 -46 105 -93 152 -98 101 -181 126 -384 119z"/>
<path d="M3696 6168 c-8 -26 -38 -114 -46 -133 -5 -11 -18 -47 -29 -80 -11
-33 -38 -112 -61 -175 -23 -63 -46 -126 -50 -140 -5 -14 -23 -63 -40 -110 -17
-47 -40 -112 -51 -145 -11 -33 -24 -69 -29 -80 -5 -11 -18 -47 -29 -80 -11
-33 -38 -112 -61 -175 -23 -63 -48 -133 -56 -155 -29 -82 -74 -76 469 -73
l482 3 -1 25 c-1 14 -20 77 -43 140 -51 138 -90 246 -101 280 -5 14 -27 77
-50 140 -23 63 -52 147 -65 185 -13 39 -38 108 -55 155 -18 47 -36 96 -40 110
-4 14 -27 77 -50 140 -23 63 -46 130 -51 148 -10 32 -36 44 -43 20z"/>
<path d="M5660 5566 c-118 -26 -216 -92 -272 -181 -64 -104 -78 -194 -78 -510
0 -179 4 -282 14 -330 45 -233 204 -364 441 -365 180 0 329 89 402 241 50 102
63 200 63 464 0 338 -27 449 -135 561 -107 110 -273 155 -435 120z"/>
</g>
</svg>
